<?xml version="1.0"?>
<svg xmlns="http://www.w3.org/2000/svg" xmlns:xlink="http://www.w3.org/1999/xlink" version="1.1" id="Capa_1" x="0px" y="0px" viewBox="0 0 496 496" style="enable-background:new 0 0 496 496;" xml:space="preserve" width="512px" height="512px" class=""><g><circle style="fill:#E8EEF6" cx="248" cy="96" r="80" data-original="#FFA64D" class="active-path" data-old_color="#E3E9F2"/><g>
	<path style="fill:#3D97D3" d="M248,128c-17.648,0-32-14.352-32-32s14.352-32,32-32s32,14.352,32,32S265.648,128,248,128z M248,80   c-8.824,0-16,7.176-16,16s7.176,16,16,16s16-7.176,16-16S256.824,80,248,80z" data-original="#333333" class="" data-old_color="#3d97d3"/>
	<path style="fill:#3D97D3" d="M312,96h-16c0-4.664-0.672-9.272-1.992-13.712l15.344-4.56C311.112,83.648,312,89.8,312,96z" data-original="#333333" class="" data-old_color="#3d97d3"/>
	<path style="fill:#3D97D3" d="M200,96h-16c0-35.288,28.712-64,64-64c20.92,0,40.568,10.264,52.536,27.456L287.408,68.6   C278.432,55.704,263.696,48,248,48C221.528,48,200,69.528,200,96z" data-original="#333333" class="" data-old_color="#3d97d3"/>
	<path style="fill:#3D97D3" d="M344,96h-16c0-44.112-35.888-80-80-80s-80,35.888-80,80h-16c0-52.936,43.064-96,96-96   S344,43.064,344,96z" data-original="#333333" class="" data-old_color="#3d97d3"/>
	<path style="fill:#3D97D3" d="M336,112v112h160V112H336z M416,165.864L367.312,128h97.368L416,165.864z M352,136.36l41.664,32.4   L352,200V136.36z M367.992,208l38.752-29.064l9.256,7.2l9.256-7.2L464.008,208H367.992z M438.336,168.76L480,136.36V200   L438.336,168.76z" data-original="#333333" class="" data-old_color="#3d97d3"/>
	<path style="fill:#3D97D3" d="M408,264c0,4.416-3.584,8-8,8h-80v-8c0-37-28.056-67.536-64-71.528V144h-16v48.472   C204.056,196.464,176,227,176,264H88c-4.416,0-8-3.584-8-8v-24H64v24c0,13.232,10.768,24,24,24h88   c0,19.592,7.888,37.36,20.624,50.352C161.832,335.904,136,365.784,136,401.376V496h224v-94.632   c0-35.592-25.84-65.464-60.624-71.016c10.976-11.2,18.328-25.944,20.152-42.352H400c13.232,0,24-10.768,24-24v-24h-16V264z    M344,401.368V480h-32v-48h-16v48h-96v-48h-16v48h-32v-78.624c0-28.624,21.456-52.552,49.896-55.672l2.968-0.328L248,405.768   l43.128-60.392l2.968,0.328C322.544,348.824,344,372.752,344,401.368z M227.016,348.864C233.664,350.888,240.704,352,248,352   c7.296,0,14.336-1.112,20.984-3.136L248,378.232L227.016,348.864z M304,280c0,30.872-25.128,56-56,56s-56-25.128-56-56v-16   c0-30.872,25.128-56,56-56s56,25.128,56,56V280z" data-original="#333333" class="" data-old_color="#3d97d3"/>
	<path style="fill:#3D97D3" d="M113.72,125.216C122.568,115.312,128,102.296,128,88c0-30.872-25.128-56-56-56S16,57.128,16,88   c0,14.296,5.432,27.312,14.28,37.216C12.192,134.536,0,153.296,0,174.32V216h144v-41.68   C144,153.296,131.808,134.536,113.72,125.216z M72,48c22.056,0,40,17.944,40,40s-17.944,40-40,40s-40-17.944-40-40S49.944,48,72,48   z M128,200H16v-25.68c0-17.48,11.816-32.792,28.4-37.656C52.56,141.312,61.96,144,72,144s19.44-2.688,27.6-7.336   c16.584,4.864,28.4,20.176,28.4,37.656V200z" data-original="#333333" class="" data-old_color="#3d97d3"/>
</g></g> </svg>
