<?xml version="1.0"?>
<svg xmlns="http://www.w3.org/2000/svg" xmlns:xlink="http://www.w3.org/1999/xlink" version="1.1" id="Capa_1" x="0px" y="0px" viewBox="0 0 496 496" style="enable-background:new 0 0 496 496;" xml:space="preserve" width="512px" height="512px" class=""><g><path style="fill:#7F8C8D" d="M248,48c-16.936,0-33.76,2.128-50,6.304l3.984,15.504c6.512-1.68,13.144-2.928,19.824-3.88  c-8.784,7.808-19.232,18.408-29.632,32.144l12.752,9.656c12.888-17.016,25.976-28.944,35.08-36.192v72.288  c-24.6-0.856-47.472-5.656-68.056-14.376l-6.232,14.736c22.544,9.552,47.512,14.768,74.288,15.64V240h-79.792  c0.488-16.552,2.376-32.68,5.832-47.992l-15.608-3.512c-3.712,16.448-5.736,33.76-6.224,51.504H96v16h48.176  c1.032,38.248,9.344,70.08,20.816,96.08c-22.336,9.56-36.992,21.104-44.672,28.224C87.424,348.552,66.296,304.712,64.2,256H80v-16  H64.312c1.528-35.896,13.2-70.104,34.224-99.336l-12.984-9.344C60.984,165.472,48,205.816,48,248c0,110.28,89.72,200,200,200  c16.912,0,33.736-2.12,49.992-6.296l-3.984-15.504c-6.512,1.672-13.136,2.92-19.808,3.872c8.36-7.432,18.232-17.392,28.136-30.184  l-12.656-9.8c-12.424,16.064-24.896,27.384-33.68,34.368v-72.288c24.6,0.856,47.472,5.656,68.056,14.376l6.232-14.736  c-22.544-9.552-47.512-14.768-74.288-15.64V256h79.792c-0.488,16.56-2.384,32.688-5.84,47.984l15.608,3.528  c3.712-16.448,5.744-33.76,6.232-51.512h79.904c-1.528,35.896-13.2,70.104-34.224,99.336l12.984,9.344  C435.016,330.528,448,290.184,448,248C448,137.72,358.28,48,248,48z M160.288,256H240v80.264  c-23.288,0.768-43.184,4.68-59.776,10.128C167.888,318.984,161.232,288.752,160.288,256z M205.88,389.52  c-6.984-9.08-13.072-18.632-18.472-28.536c14.72-4.648,32.216-7.992,52.592-8.72v72.192  C231.12,417.392,218.456,405.88,205.88,389.52z M171.992,366.584c15.688,29.744,34.944,50.528,49.632,63.496  c-33.496-4.832-64.088-18.704-89.24-39.08C139.384,384.768,152.4,374.888,171.992,366.584z M363.616,105  c-7,6.24-20.016,16.12-39.608,24.416c-15.688-29.744-34.944-50.528-49.632-63.496C307.872,70.752,338.464,84.624,363.616,105z   M256,71.536c8.88,7.072,21.544,18.584,34.12,34.936c6.984,9.08,13.072,18.632,18.472,28.536c-14.72,4.648-32.216,7.992-52.592,8.72  L256,71.536L256,71.536z M256,240v-80.264c23.288-0.768,43.184-4.68,59.776-10.128c12.336,27.408,18.992,57.648,19.936,90.392  L256,240L256,240z M351.824,240c-1.032-38.248-9.344-70.08-20.816-96.08c22.336-9.56,36.992-21.104,44.672-28.224  c32.888,31.752,54.016,75.592,56.112,124.304H351.824z" data-original="#333333" class="active-path" data-old_color="#7f8c8d"/><path style="fill:#3D97D3" d="M176,219.312L100.688,144H40c-22.056,0-40-17.944-40-40V40C0,17.944,17.944,0,40,0h128  c22.056,0,40,17.944,40,40v64c0,19.32-13.768,35.48-32,39.192V219.312z" data-original="#FFA64D" class="" data-old_color="#3d97d3"/><g>
	<rect x="32" y="32" style="fill:#7F8C8D" width="16" height="16" data-original="#333333" class="active-path" data-old_color="#7f8c8d"/>
	<rect x="64" y="32" style="fill:#7F8C8D" width="112" height="16" data-original="#333333" class="active-path" data-old_color="#7f8c8d"/>
	<rect x="160" y="96" style="fill:#7F8C8D" width="16" height="16" data-original="#333333" class="active-path" data-old_color="#7f8c8d"/>
	<rect x="32" y="96" style="fill:#7F8C8D" width="112" height="16" data-original="#333333" class="active-path" data-old_color="#7f8c8d"/>
	<rect x="32" y="64" style="fill:#7F8C8D" width="144" height="16" data-original="#333333" class="active-path" data-old_color="#7f8c8d"/>
</g><path style="fill:#3D97D3" d="M456,496H328c-22.056,0-40-17.944-40-40v-64c0-19.32,13.768-35.48,32-39.192v-76.12L395.312,352H456  c22.056,0,40,17.944,40,40v64C496,478.056,478.056,496,456,496z" data-original="#FFA64D" class="" data-old_color="#3d97d3"/><g>
	<rect x="448" y="448" style="fill:#7F8C8D" width="16" height="16" data-original="#333333" class="active-path" data-old_color="#7f8c8d"/>
	<rect x="320" y="448" style="fill:#7F8C8D" width="112" height="16" data-original="#333333" class="active-path" data-old_color="#7f8c8d"/>
	<rect x="320" y="384" style="fill:#7F8C8D" width="16" height="16" data-original="#333333" class="active-path" data-old_color="#7f8c8d"/>
	<rect x="352" y="384" style="fill:#7F8C8D" width="112" height="16" data-original="#333333" class="active-path" data-old_color="#7f8c8d"/>
	<rect x="320" y="416" style="fill:#7F8C8D" width="144" height="16" data-original="#333333" class="active-path" data-old_color="#7f8c8d"/>
</g></g> </svg>
