<?xml version="1.0"?>
<svg xmlns="http://www.w3.org/2000/svg" xmlns:xlink="http://www.w3.org/1999/xlink" version="1.1" id="Capa_1" x="0px" y="0px" viewBox="0 0 496 496" style="enable-background:new 0 0 496 496;" xml:space="preserve" width="512px" height="512px" class=""><g><g>
	<path style="fill:#3D97D3" d="M256,352h-48v-64h48V352z" data-original="#FFA64D" class="" data-old_color="#3d97d3"/>
	<path style="fill:#3D97D3" d="M320,352h-48V224h48V352z" data-original="#FFA64D" class="" data-old_color="#3d97d3"/>
</g><g>
	<rect x="248" y="72" style="fill:#7F8C8D" width="112" height="16" data-original="#333333" class="active-path" data-old_color="#7f8c8d"/>
	<rect x="248" y="104" style="fill:#7F8C8D" width="16" height="16" data-original="#333333" class="active-path" data-old_color="#7f8c8d"/>
	<rect x="280" y="104" style="fill:#7F8C8D" width="80" height="16" data-original="#333333" class="active-path" data-old_color="#7f8c8d"/>
	<polygon style="fill:#7F8C8D" points="192,200 176,200 176,368 344,368 344,352 192,352  " data-original="#333333" class="active-path" data-old_color="#7f8c8d"/>
	<path style="fill:#7F8C8D" d="M474.224,352l3.144-12.688c1.752-7.024,2.632-14.248,2.632-21.48v-130.16   c0-9.536-1.512-18.96-4.504-28l-13.928-42.088c-4.288-12.976-11.624-24.952-21.232-34.632L412.672,55.08   c-5.528-5.552-13.168-7.96-20.672-6.768V0H248H104v48.32c-7.504-1.184-15.152,1.224-20.672,6.768L55.672,82.952   c-9.6,9.68-16.944,21.656-21.232,34.624l-13.928,42.096c-3,9.04-4.512,18.464-4.512,28v130.16c0,7.232,0.88,14.464,2.624,21.48   L21.776,352H0v144h128v-56h240v56h128V352H474.224z M393.168,64.416c2.832-0.976,6-0.224,8.152,1.936l27.656,27.864   c7.872,7.936,13.888,17.752,17.408,28.392l13.928,42.096C462.76,172.12,464,179.84,464,187.672v130.16   c0,5.936-0.728,11.864-2.16,17.632L457.744,352H415.12v-9.808c0-16.528-5.808-32.728-16.344-45.608l-49.552-60.608   c-0.744-0.904-1.288-1.984-1.576-3.104l-3.392-13.288c-0.528-2.064-0.208-4.208,0.888-6.048c1.168-1.944,3.064-3.32,5.336-3.872   l5.744-1.408c3.56-0.88,7.296,0.52,9.304,3.48l13.728,20.136c9.616,14.136,27.344,20.832,44.168,16.76l10.496-2.568l-3.816-15.544   l-10.488,2.568c-3.328,0.816-6.704,0.872-9.968,0.384l5.552-22.432c0.472-1.88,0.8-3.808,0.992-5.752l6.256-63.072   c1.192-12.048-3-23.872-11.504-32.432L392,90.688v-25.88L393.168,64.416z M399.672,207.184l-4.664,18.792   c-0.92-0.968-1.776-2-2.536-3.12L392,222.168v-66.832l12.448,6.272l-4.176,42.088C400.16,204.872,399.952,206.048,399.672,207.184z    M406.144,144.544L392,137.416v-24.008l7.592,7.656c5.136,5.16,7.656,12.296,6.936,19.576L406.144,144.544z M103.528,222.864   c-0.76,1.12-1.616,2.16-2.536,3.12l-4.664-18.792c-0.28-1.152-0.488-2.32-0.6-3.488l-4.176-42.096L104,155.344v66.832   L103.528,222.864z M89.472,140.64c-0.72-7.28,1.808-14.424,6.936-19.584L104,113.4v24.016l-14.144,7.128L89.472,140.64z    M34.16,335.456c-1.432-5.76-2.16-11.688-2.16-17.624v-130.16c0-7.832,1.24-15.552,3.696-22.968L49.624,122.6   c3.512-10.632,9.528-20.448,17.408-28.384L94.68,66.36c2.16-2.168,5.304-2.912,8.16-1.944l1.16,0.392v25.888l-18.952,19.088   c-8.496,8.56-12.696,20.392-11.504,32.44l6.256,63.08c0.192,1.936,0.52,3.856,0.992,5.752l5.56,22.416   c-3.264,0.496-6.64,0.432-9.96-0.384l-10.496-2.568l-3.816,15.544l10.496,2.568c16.784,4.136,34.544-2.624,44.16-16.752   l13.728-20.152c2.008-2.936,5.752-4.352,9.304-3.472l5.752,1.408c2.264,0.552,4.16,1.928,5.328,3.872   c1.104,1.832,1.424,3.984,0.888,6.056l-3.392,13.272c-0.288,1.128-0.832,2.2-1.584,3.12l-49.544,60.6   c-10.536,12.88-16.344,29.08-16.344,45.608V352H38.256L34.16,335.456z M16,480V368h96v80H72v16h40v16H16z M368,424H128v-72H96.88   v-9.808c0-12.84,4.52-25.448,12.736-35.488l49.536-60.592c2.208-2.696,3.832-5.904,4.704-9.288l3.392-13.272   c1.592-6.232,0.648-12.712-2.672-18.248c-3.384-5.632-8.8-9.608-15.24-11.184l-5.744-1.408c-8.632-2.096-17.592,0.6-23.592,6.712   V16h128h128v183.432c-6-6.128-14.952-8.824-23.592-6.72l-5.736,1.408c-6.456,1.576-11.864,5.552-15.248,11.184   c-3.32,5.536-4.264,12.016-2.672,18.24l3.392,13.288c0.864,3.376,2.496,6.584,4.696,9.272l49.544,60.6   c8.208,10.04,12.736,22.64,12.736,35.488V352H368V424z M480,480h-96v-16h40v-16h-40v-80h96V480z" data-original="#333333" class="active-path" data-old_color="#7f8c8d"/>
	<rect x="440" y="448" style="fill:#7F8C8D" width="16" height="16" data-original="#333333" class="active-path" data-old_color="#7f8c8d"/>
	<path style="fill:#7F8C8D" d="M432,432c13.232,0,24-10.768,24-24s-10.768-24-24-24s-24,10.768-24,24S418.768,432,432,432z    M432,400c4.416,0,8,3.584,8,8s-3.584,8-8,8s-8-3.584-8-8S427.584,400,432,400z" data-original="#333333" class="active-path" data-old_color="#7f8c8d"/>
	<rect x="40" y="448" style="fill:#7F8C8D" width="16" height="16" data-original="#333333" class="active-path" data-old_color="#7f8c8d"/>
	<path style="fill:#7F8C8D" d="M88,408c0-13.232-10.768-24-24-24s-24,10.768-24,24s10.768,24,24,24S88,421.232,88,408z M64,416   c-4.416,0-8-3.584-8-8s3.584-8,8-8s8,3.584,8,8S68.416,416,64,416z" data-original="#333333" class="active-path" data-old_color="#7f8c8d"/>
</g><path style="fill:#3D97D3" d="M184,136c-26.472,0-48-21.528-48-48s21.528-48,48-48s48,21.528,48,48S210.472,136,184,136z" data-original="#FFA64D" class="" data-old_color="#3d97d3"/></g> </svg>
